#!OML:ASF F:\VICON\USERDATA\INSTALL\Justin_Nancy\Justin_Nancy.ASF
:FULLY-SPECIFIED
:DEGREES
32
root 11.3922 16.6688 -15.378 7.77688 -3.72951 2.82786
lowerback 8.2467 3.94154 3.33031
upperback 0.842312 5.53038 -0.209403
thorax -3.39874 2.69739 -2.67212
lowerneck -15.6446 -8.97409 -13.6171
upperneck 11.8604 -10.6744 9.74964
head 7.47181 -4.9545 4.12654
rclavicle -4.01545e-014 2.38542e-015
rhumerus -50.1319 14.7271 -86.5624
rradius 110.276
rwrist -6.92377
rhand -17.1967 31.4972
rfingers 7.12502
rthumb 9.04558 1.71119
lclavicle -4.01545e-014 2.38542e-015
lhumerus -62.1559 -4.29501 86.504
lradius 101.699
lwrist 30.297
lhand -12.7398 5.76942
lfingers 7.12502
lthumb 13.344 35.3222
rfemur 13.698 5.14409 35.1448
rtibia 29.6628
rfoot 5.10652 -5.41716
rtoes 14.7526
lfemur -46.365 -7.60108 -4.21419
ltibia 34.7731
lfoot -0.643633 -1.27337
ltoes -19.4757
33
root 11.2929 16.6504 -14.755 7.99139 -4.92974 2.79973
lowerback 8.22408 4.39445 3.12991
upperback 0.439776 6.11414 -0.440817
thorax -3.76127 2.97531 -2.87678
lowerneck -15.1208 -9.15116 -13.6162
upperneck 11.9675 -11.0296 9.93485
head 7.47291 -5.12453 4.15333
rclavicle -6.20208e-014 5.56597e-015
rhumerus -50.6661 15.1328 -87.1124
rradius 110.487
rwrist -7.22306
rhand -17.141 30.582
rfingers 7.12502
rthumb 9.09928 0.7983
lclavicle -6.20208e-014 5.56597e-015
lhumerus -63.3683 -4.28979 86.064
lradius 103.173
lwrist 29.7463
lhand -12.4692 5.73943
lfingers 7.12502
lthumb 13.6048 35.2749
rfemur 14.3802 6.57165 35.1609
rtibia 31.2184
rfoot 6.78824 -4.20934
rtoes 15.3864
lfemur -46.115 -10.2758 -1.32609
ltibia 31.1552
lfoot 0.647806 -1.46413
ltoes -19.6054
34
root 11.1863 16.6195 -14.1361 8.06817 -6.4802 2.59901
lowerback 8.10506 4.92501 3.07512
upperback 0.252358 6.80585 -0.678505
thorax -3.82023 3.31472 -3.15775
lowerneck -14.9922 -9.23291 -13.7699
upperneck 12.3663 -11.228 10.3425
head 7.64169 -5.19614 4.288
rclavicle -1.23246e-014 9.54166e-015
rhumerus -50.5858 15.3323 -87.5858
rradius 110.363
rwrist -7.43425
rhand -16.7766 30.1227
rfingers 7.12502
rthumb 9.45091 0.354604
lclavicle -1.23246e-014 9.54166e-015
lhumerus -64.2202 -4.29949 85.6366
lradius 104.647
lwrist 29.2284
lhand -12.0682 5.41975
lfingers 7.12502
lthumb 13.9913 34.9289
rfemur 14.7892 8.19035 35.3724
rtibia 33.9372
rfoot 6.69369 -3.84915
rtoes 9.21467
lfemur -45.5288 -12.2846 1.53684
ltibia 28.4407
lfoot 1.77228 -1.04604
ltoes -19.2933
35
root 11.0874 16.5761 -13.5185 8.00859 -8.14213 2.6771
lowerback 7.99803 5.4123 2.90073
upperback 0.167523 7.42308 -1.03062
thorax -3.77951 3.62285 -3.47594
lowerneck -14.9554 -9.24861 -13.8027
upperneck 12.7462 -11.3411 10.6903
head 7.79959 -5.22298 4.39444
rclavicle -1.92821e-014 1.59028e-015
rhumerus -50.3246 15.5494 -88.1728
rradius 109.829
rwrist -7.48156
rhand -16.5482 30.4977
rfingers 7.12502
rthumb 9.67129 0.739744
lclavicle -1.92821e-014 1.59028e-015
lhumerus -64.8508 -4.28348 85.3028
lradius 105.985
lwrist 28.564
lhand -12.0545 5.52322
lfingers 7.12502
lthumb 14.0045 35.0315
rfemur 14.6691 9.47283 35.1023
rtibia 37.803
rfoot 5.87536 -4.01286
rtoes 6.7408
lfemur -44.7403 -13.6772 3.47444
ltibia 26.8149
lfoot 3.78782 -0.774523
ltoes -18.2479
36
root 11.0009 16.5255 -12.9013 7.85612 -9.9703 2.93825
lowerback 7.66833 5.82091 2.60936
upperback 0.320726 7.91875 -1.35635
thorax -3.3918 3.8858 -3.64537
lowerneck -14.8728 -9.22199 -13.7042
upperneck 12.6593 -11.3634 10.869
head 7.76565 -5.21723 4.43883
rclavicle -8.3589e-014 -1.27222e-014
rhumerus -49.8577 15.8453 -88.7981
rradius 109.166
rwrist -7.48576
rhand -16.5137 30.6605
rfingers 7.12502
rthumb 9.70457 0.904043
lclavicle -8.3589e-014 -1.27222e-014
lhumerus -65.0937 -3.94319 85.1061
lradius 107.162
lwrist 27.8052
lhand -12.7054 5.55319
lfingers 7.12502
lthumb 13.3772 35.1037
rfemur 13.9496 10.3911 34.2645
rtibia 42.5759
rfoot 4.57935 -4.57115
rtoes 10.7999
lfemur -43.4749 -14.3225 4.37386
ltibia 25.9704
lfoot 4.90791 -1.4859
ltoes -22.7625
37
root 10.9146 16.4645 -12.2872 7.56806 -12.2648 2.88266
lowerback 7.57235 6.22528 2.5397
upperback 0.589143 8.43811 -1.56321
thorax -2.99825 4.15858 -3.82808
lowerneck -15.3998 -9.17388 -13.6055
upperneck 12.8132 -11.3087 11.1199
head 7.91098 -5.14688 4.49978
rclavicle -1.19072e-013 1.82882e-014
rhumerus -49.3158 16.1635 -89.5581
rradius 108.406
rwrist -7.47676
rhand -16.4123 30.2928
rfingers 7.12502
rthumb 9.80234 0.540989
lclavicle -1.19072e-013 1.82882e-014
lhumerus -65.1868 -3.41186 85.095
lradius 108.376
lwrist 27.2046
lhand -11.3067 4.49313
lfingers 7.12502
lthumb 14.7251 33.9501
rfemur 12.8697 11.3549 33.4828
rtibia 48.1442
rfoot 3.55322 -6.16056
rtoes 11.659
lfemur -41.6031 -14.1101 4.91352
ltibia 25.8301
lfoot 6.96346 -1.38723
ltoes -20.3203
38
root 10.8159 16.3883 -11.6916 7.29052 -14.2454 2.51306
lowerback 7.9501 6.39746 2.59569
upperback 0.694071 8.67676 -1.54638
thorax -3.07382 4.27479 -3.90063
lowerneck -16.0904 -9.12458 -13.5391
upperneck 13.1545 -11.2106 11.2026
head 8.13202 -5.0644 4.51198
rclavicle -4.90004e-014 1.74931e-014
rhumerus -48.8326 16.5403 -90.3643
rradius 107.409
rwrist -7.38166
rhand -16.3142 30.0112
rfingers 7.12502
rthumb 9.89707 0.263883
lclavicle -4.90004e-014 1.74931e-014
lhumerus -65.2086 -2.72837 85.4471
lradius 109.318
lwrist 26.6749
lhand -13.1095 7.02493
lfingers 7.12502
lthumb 12.9877 36.6007
rfemur 11.3726 11.9291 33.1331
rtibia 54.0805
rfoot 1.91023 -8.59026
rtoes 8.08851
lfemur -40.4533 -13.2701 5.19686
ltibia 26.551
lfoot 7.0972 -2.13045
ltoes -19.6283
39
root 10.7171 16.263 -11.1572 7.31946 -14.7995 2.39175
lowerback 8.34156 6.02243 2.29984
upperback 0.583448 8.16374 -1.38488
thorax -3.51215 4.0094 -3.59167
lowerneck -16.5689 -8.83965 -13.255
upperneck 13.3835 -10.7655 10.7999
head 8.19051 -4.8582 4.38483
rclavicle 6.86801e-014 8.74653e-015
rhumerus -48.5638 16.9283 -91.15
rradius 106.244
rwrist -7.03664
rhand -16.4234 29.9885
rfingers 7.12502
rthumb 9.79164 0.236184
lclavicle 6.86801e-014 8.74653e-015
lhumerus -65.1391 -1.96157 86.2397
lradius 109.978
lwrist 26.6565
lhand -13.4372 7.23352
lfingers 7.12502
lthumb 12.6717 36.8291
rfemur 8.83712 10.7025 32.363
rtibia 60.2952
rfoot 0.0555652 -11.0318
rtoes 7.36461
lfemur -39.4145 -11.9313 4.84187
ltibia 27.9365
lfoot 3.58294 -2.53621
ltoes -23.7435
40
root 10.6305 16.1863 -10.5687 6.65394 -16.1057 2.49846
lowerback 8.78165 5.87073 2.16095
upperback 0.723331 7.95453 -1.33007
thorax -3.65241 3.90407 -3.48391
lowerneck -16.1575 -8.42915 -13.1333
upperneck 13.0705 -10.2447 10.7398
head 7.93912 -4.62679 4.43404
rclavicle 7.14631e-014 -3.97569e-014
rhumerus -48.5887 16.8162 -91.9874
rradius 105.029
rwrist -6.71457
rhand -16.5062 30.4031
rfingers 7.12502
rthumb 9.71177 0.646957
lclavicle 7.14631e-014 -3.97569e-014
lhumerus -65.0672 -1.58469 87.4392
lradius 110.627
lwrist 27.2468
lhand -13.5961 7.93018
lfingers 7.12502
lthumb 12.5185 37.5352
rfemur 6.57017 9.95036 31.3272
rtibia 66.3348
rfoot -0.118936 -13.1216
rtoes 7.38683
lfemur -36.7935 -10.9232 3.91795
ltibia 29.8049
lfoot -1.44061 -3.14935
ltoes -25.5928
41
root 10.5398 16.1063 -9.99911 5.92397 -17.3385 2.82961
lowerback 9.47542 5.5989 1.72878
upperback 0.729723 7.55946 -1.24708
thorax -4.12521 3.70137 -3.20488
lowerneck -15.187 -7.94622 -13.11
upperneck 12.6129 -9.67109 10.7294
head 7.54752 -4.38792 4.53333
rclavicle 3.12092e-014 -3.4191e-014
rhumerus -48.8691 16.5509 -92.898
rradius 103.691
rwrist -6.18345
rhand -16.5295 30.548
rfingers 7.12502
rthumb 9.68934 0.790884
lclavicle 3.12092e-014 -3.4191e-014
lhumerus -64.9136 -1.30175 89.0068
lradius 111.065
lwrist 28.0154
lhand -14.2559 9.47081
lfingers 7.12502
lthumb 11.8823 39.1136
rfemur 4.19948 9.14698 30.0188
rtibia 72.2412
rfoot -0.998839 -14.9649
rtoes 10.5947
lfemur -34.4627 -9.98968 2.79529
ltibia 31.9934
lfoot -6.80563 -4.88184
ltoes -29.0316
42
root 10.4379 16.0363 -9.44726 4.97241 -18.4448 3.46062
lowerback 10.4506 5.19646 0.897528
upperback 0.835733 6.94185 -1.08235
thorax -4.71281 3.39624 -2.60792
lowerneck -14.6429 -7.44364 -13.0989
upperneck 12.2698 -8.97698 10.4492
head 7.24004 -4.0974 4.54398
rclavicle 2.90226e-014 -9.54166e-015
rhumerus -49.1111 16.2512 -93.5683
rradius 102.366
rwrist -5.28565
rhand -16.864 30.6041
rfingers 7.12502
rthumb 9.36655 0.832235
lclavicle 2.90226e-014 -9.54166e-015
lhumerus -64.2347 -1.08848 90.9944
lradius 111.273
lwrist 28.7579
lhand -14.4106 9.4632
lfingers 7.12502
lthumb 11.7331 39.1146
rfemur 1.87099 8.17674 28.41
rtibia 77.8422
rfoot -3.09228 -16.3255
rtoes 15.8425
lfemur -32.183 -9.19677 1.35377
ltibia 34.2507
lfoot -12.0271 -5.94988
ltoes -30.0397
43
root 10.3255 15.9779 -8.91626 3.93897 -19.365 4.77357
lowerback 11.4779 4.74901 -0.661601
upperback 1.09918 6.14565 -1.06713
thorax -5.20782 3.02366 -1.7099
lowerneck -15.199 -7.09262 -13.0375
upperneck 12.2333 -8.37622 10.1085
head 7.22974 -3.81847 4.48639
rclavicle -6.77856e-014 -7.95139e-015
rhumerus -49.0019 15.5752 -94.0753
rradius 101.188
rwrist -4.07597
rhand -17.4313 30.6626
rfingers 7.12502
rthumb 8.81913 0.866872
lclavicle -6.77856e-014 -7.95139e-015
lhumerus -62.5464 -1.2086 93.1374
lradius 111.11
lwrist 29.4587
lhand -14.0934 9.29479
lfingers 7.12502
lthumb 12.039 38.9285
rfemur -1.34101 6.74313 26.0456
rtibia 83.3432
rfoot -4.56372 -16.8742
rtoes 18.5145
lfemur -30.1216 -8.47585 -0.819665
ltibia 36.228
lfoot -15.3977 -6.0045
ltoes -29.4994
44
root 10.1951 15.9304 -8.4086 2.98979 -20.1451 7.2306
lowerback 12.2422 4.38902 -3.527
upperback 1.17144 5.2449 -1.33949
thorax -5.80475 2.63449 -0.329164
lowerneck -15.5432 -6.69585 -12.8978
upperneck 12.0605 -7.77715 9.92647
head 7.14556 -3.5302 4.47323
rclavicle 9.74045e-015 2.22639e-014
rhumerus -49.0783 14.478 -94.5789
rradius 100.281
rwrist -2.61007
rhand -17.8918 30.4293
rfingers 7.12502
rthumb 8.37479 0.615295
lclavicle 9.74045e-015 2.22639e-014
lhumerus -60.4137 -1.87398 95.2292
lradius 110.617
lwrist 29.9504
lhand -13.6499 9.6055
lfingers 7.12502
lthumb 12.4666 39.2137
rfemur -5.44133 4.84221 22.3126
rtibia 88.7604
rfoot -6.5454 -16.5238
rtoes 19.2853
lfemur -28.6513 -7.54232 -4.14606
ltibia 37.9634
lfoot -17.4202 -5.88381
ltoes -27.3384
45
root 10.0594 15.8843 -7.91699 2.10967 -20.6179 10.081
lowerback 12.6642 4.00456 -6.72494
upperback 1.21502 4.23459 -1.70259
thorax -6.17284 2.21238 1.21425
lowerneck -15.7732 -6.17194 -12.8088
upperneck 12.0402 -7.03382 9.83161
head 7.08155 -3.17176 4.51823
rclavicle -2.8625e-014 -1.90833e-014
rhumerus -49.4098 13.0915 -95.0232
rradius 99.7921
rwrist -1.5354
rhand -18.2776 30.1977
rfingers 7.12502
rthumb 8.00237 0.369158
lclavicle -2.8625e-014 -1.90833e-014
lhumerus -58.1317 -3.03307 97.2549
lradius 109.987
lwrist 30.1162
lhand -13.5692 10.0457
lfingers 7.12502
lthumb 12.5445 39.6491
rfemur -10.1166 2.44711 18.1603
rtibia 93.6268
rfoot -9.03599 -15.5736
rtoes 16.3769
lfemur -27.5225 -6.68501 -7.76938
ltibia 39.4631
lfoot -19.6295 -6.06648
ltoes -24.8781
46
root 9.93398 15.8361 -7.44008 1.69149 -20.9536 12.0672
lowerback 14.8765 3.58372 -9.43627
upperback -0.100589 2.95433 -1.55475
thorax -8.90238 1.78756 2.97306
lowerneck -15.95 -5.4656 -12.8588
upperneck 13.4354 -6.01682 9.24883
head 7.42489 -2.74164 4.46752
rclavicle -4.79071e-014 3.10104e-014
rhumerus -52.2206 12.091 -95.6023
rradius 100.109
rwrist -1.17599
rhand -18.5017 30.2458
rfingers 7.12502
rthumb 7.78616 0.409179
lclavicle -4.79071e-014 3.10104e-014
lhumerus -58.0014 -3.62675 99.5429
lradius 109.766
lwrist 29.7271
lhand -13.9002 11.5425
lfingers 7.12502
lthumb 12.2253 41.1652
rfemur -15.2024 -0.224995 15.1855
rtibia 97.91
rfoot -11.69 -14.1921
rtoes 12.2074
lfemur -26.4435 -6.30638 -10.2995
ltibia 40.597
lfoot -21.1083 -6.19199
ltoes -21.9913
